<?xml version="1.0" encoding="UTF-8" standalone="no"?>
<svg
   xmlns:dc="http://purl.org/dc/elements/1.1/"
   xmlns:cc="http://creativecommons.org/ns#"
   xmlns:rdf="http://www.w3.org/1999/02/22-rdf-syntax-ns#"
   xmlns:svg="http://www.w3.org/2000/svg"
   xmlns="http://www.w3.org/2000/svg"
   viewBox="0 0 777.33331 338.66666"
   height="338.66666"
   width="777.33331"
   xml:space="preserve"
   id="svg2"
   version="1.1"><metadata
     id="metadata8"><rdf:RDF><cc:Work
         rdf:about=""><dc:format>image/svg+xml</dc:format><dc:type
           rdf:resource="http://purl.org/dc/dcmitype/StillImage" /></cc:Work></rdf:RDF></metadata><defs
     id="defs6"><clipPath
       id="clipPath18"
       clipPathUnits="userSpaceOnUse"><path
         id="path16"
         d="M 0,254 H 583 V 0 H 0 Z" /></clipPath></defs><g
     transform="matrix(1.3333333,0,0,-1.3333333,0,338.66667)"
     id="g10"><g
       id="g12"><g
         clip-path="url(#clipPath18)"
         id="g14"><g
           transform="translate(310.3896,145.9233)"
           id="g20"><path
             id="path22"
             style="fill:#1d1d1b;fill-opacity:1;fill-rule:nonzero;stroke:none"
             d="m 0,0 v -4.154 c -0.103,-5.399 -0.451,-15.435 -1.133,-30.153 -0.605,-14.709 -1.381,-29.266 -2.409,-43.678 l -17.378,-0.446 c 0.862,10.798 1.591,20.056 2.149,27.743 0.55,7.673 1.111,15.793 1.769,24.364 0.596,8.568 1.015,14.119 1.172,16.619 0.163,2.5 0.236,4.165 0.322,5.015 0.08,0.453 0.094,0.885 0.094,1.235 0.04,0.35 0.063,0.868 0.063,1.491 0,7.759 -2.389,11.63 -7.161,11.63 -2.196,0 -4.606,-0.964 -7.338,-2.888 -2.664,-1.923 -5.188,-4.545 -7.598,-7.856 0,-14.005 -0.116,-26.428 -0.315,-37.35 -0.205,-10.891 -0.373,-21.076 -0.695,-30.528 l -12.572,-0.353 v 6.915 c 0,4.843 -0.018,10.644 -0.15,17.38 -0.085,6.736 -0.21,11.554 -0.218,14.447 -0.064,2.887 -0.303,10.002 -0.684,21.343 -0.349,11.358 -0.859,24.165 -1.546,38.476 l 15.66,1.584 c 0.229,-6.484 0.343,-11.925 0.343,-16.298 7.679,7.276 15.113,10.888 22.274,10.888 3.024,0 5.612,-0.823 7.914,-2.52 2.307,-1.694 4.072,-4.421 5.447,-8.253 C -0.661,10.861 0,5.968 0,0" /></g><g
           transform="translate(361.4507,159.0371)"
           id="g24"><path
             id="path26"
             style="fill:#1d1d1b;fill-opacity:1;fill-rule:nonzero;stroke:none"
             d="m 0,0 c 0,6.157 -0.941,10.807 -2.877,13.955 -1.938,3.155 -4.296,4.733 -7.132,4.733 -2.589,0 -5.083,-1.137 -7.46,-3.414 -2.37,-2.274 -4.424,-5.43 -6.021,-9.521 -2.195,-5.536 -3.752,-11.557 -4.782,-17.98 l 27.216,0.63 C -0.357,-7.41 0,-3.537 0,0 m 18.13,-52.112 c 0,-5.301 -1.121,-10.545 -3.365,-15.691 -2.23,-5.132 -5.466,-9.365 -9.662,-12.675 -4.26,-3.295 -9.273,-5.041 -15.112,-5.219 -7.338,0 -13.689,2.844 -19.066,8.543 -5.375,5.713 -9.374,13.175 -12.103,22.376 -2.755,9.236 -4.126,18.993 -4.126,29.351 0,7.623 0.799,14.982 2.318,22.096 1.511,7.141 3.867,13.522 6.97,19.14 3.103,5.664 6.977,10.121 11.676,13.381 4.679,3.298 10.019,4.935 16.017,4.935 8.806,0 15.038,-2.566 18.741,-7.663 3.662,-5.12 5.524,-13.041 5.524,-23.793 0,-5.972 -0.664,-14.536 -2.004,-25.706 l -43.288,0.7 c -0.122,-1.358 -0.161,-3.359 -0.161,-6.034 0,-11.553 1.746,-22.389 5.208,-32.431 2.884,-8.389 7.75,-12.582 14.64,-12.582 3.489,0 6.658,1.266 9.458,3.765 2.838,2.509 4.664,5.992 5.537,10.426 0.558,2.48 0.827,4.415 0.827,5.835 0,2.9 -0.511,5.136 -1.544,6.705 -1.036,1.567 -2.245,2.356 -3.613,2.356 -1.369,0 -2.469,-0.651 -3.346,-1.919 -0.882,-1.273 -1.303,-2.996 -1.303,-5.176 0,-1.786 0.184,-3.475 0.66,-5.058 l -13.534,-0.879 c -0.838,2.638 -1.242,5.176 -1.242,7.615 0,5.074 1.41,9.589 4.298,13.516 2.87,3.925 6.718,6.076 11.6,6.427 h 1.555 c 4.001,0 7.347,-1.04 10.102,-3.06 2.76,-2.031 4.838,-4.728 6.238,-8.059 1.394,-3.337 2.1,-7.075 2.1,-11.222" /></g><g
           transform="translate(427.9766,110.0137)"
           id="g28"><path
             id="path30"
             style="fill:#1d1d1b;fill-opacity:1;fill-rule:nonzero;stroke:none"
             d="m 0,0 c 0,-7.875 -0.829,-14.431 -2.501,-19.673 -1.655,-5.241 -3.845,-9.024 -6.593,-11.366 -2.75,-2.346 -5.935,-3.574 -9.514,-3.685 h -0.647 c -3.651,0 -7.184,1.063 -10.531,3.179 -3.384,2.151 -6.141,5.573 -8.293,10.303 -2.141,4.726 -3.202,10.693 -3.202,17.922 v 2.547 c 0.192,5.797 0.678,14.952 1.38,27.459 0.701,12.505 1.236,21.858 1.609,28.017 0.392,6.176 0.948,14.667 1.662,25.504 0.699,10.813 1.238,21.394 1.713,31.744 l 15.167,-0.534 c -1.032,-6.909 -2.255,-19.216 -3.674,-36.88 l 21.87,-1.94 -1.143,-13.992 c -2.357,-0.178 -5.15,-0.329 -8.414,-0.417 -3.275,-0.09 -6.469,-0.111 -9.638,-0.111 h -3.906 C -25.416,45.544 -26.047,33.268 -26.523,21.271 -27.002,9.283 -27.275,0.801 -27.275,-4.154 V -7.07 c 0.069,-2.971 0.834,-5.362 2.351,-7.235 1.478,-1.859 3.141,-2.781 5.013,-2.781 1.852,0 3.428,0.906 4.719,2.697 1.305,1.806 1.973,4.474 1.973,8.018 v 0.527 c 0.161,0 0.042,6.241 -0.332,18.713 l 12.795,0.7 C -0.27,8.725 0,4.202 0,0" /></g><g
           transform="translate(477.0918,110.0137)"
           id="g32"><path
             id="path34"
             style="fill:#1d1d1b;fill-opacity:1;fill-rule:nonzero;stroke:none"
             d="m 0,0 c 0,-7.875 -0.829,-14.431 -2.484,-19.673 -1.662,-5.241 -3.867,-9.024 -6.62,-11.366 -2.751,-2.346 -5.907,-3.574 -9.5,-3.685 h -0.658 c -3.636,0 -7.15,1.063 -10.521,3.179 -3.387,2.151 -6.153,5.573 -8.28,10.303 -2.165,4.726 -3.225,10.693 -3.225,17.922 v 2.547 c 0.205,5.797 0.671,14.952 1.383,27.459 0.694,12.505 1.247,21.858 1.647,28.017 0.369,6.176 0.913,14.667 1.614,25.504 0.693,10.813 1.287,21.394 1.714,31.744 l 15.168,-0.534 c -1.034,-6.909 -2.242,-19.216 -3.659,-36.88 l 21.874,-1.94 -1.157,-13.992 c -2.329,-0.178 -5.13,-0.329 -8.391,-0.417 -3.263,-0.09 -6.478,-0.111 -9.628,-0.111 h -3.918 C -25.419,45.544 -26.027,33.268 -26.516,21.271 -27.013,9.283 -27.245,0.801 -27.245,-4.154 V -7.07 c 0.04,-2.971 0.813,-5.362 2.308,-7.235 1.505,-1.859 3.181,-2.781 5.012,-2.781 1.865,0 3.436,0.906 4.751,2.697 1.291,1.806 1.944,4.474 1.944,8.018 v 0.527 c 0.171,0 0.061,6.241 -0.33,18.713 l 12.832,0.7 C -0.242,8.725 0,4.202 0,0" /></g><g
           transform="translate(534.29,129.79)"
           id="g36"><path
             id="path38"
             style="fill:#1d1d1b;fill-opacity:1;fill-rule:nonzero;stroke:none"
             d="m 0,0 c 0,7.564 -1.574,13.83 -4.743,18.829 -3.149,4.997 -7.738,7.495 -13.787,7.495 -3.856,0 -7.169,-1.048 -9.953,-3.105 -2.771,-2.055 -4.895,-5.104 -6.357,-9.078 -1.483,-3.994 -2.201,-8.891 -2.201,-14.665 0,-2.794 0.154,-5.832 0.49,-9.128 1.134,-8.522 3.498,-15.596 7.095,-21.224 3.586,-5.658 7.231,-8.478 10.926,-8.478 3.805,0 7.322,2.628 10.54,7.881 3.201,5.266 5.597,12.755 7.172,22.44 C -0.279,-5.683 0,-2.646 0,0 m 13.872,3.46 c 0,-4.733 -0.497,-9.46 -1.47,-14.189 C 9.52,-24.38 5.171,-34.861 -0.65,-42.173 c -5.832,-7.336 -11.831,-11.003 -18.035,-11.003 -6.272,0 -12.31,3.676 -18.157,11.029 -5.848,7.355 -10.208,17.834 -13.091,31.418 -0.986,4.684 -1.465,9.414 -1.465,14.189 0,5.85 0.731,11.321 2.19,16.439 1.479,5.111 3.642,9.617 6.493,13.508 2.858,3.911 6.35,6.968 10.481,9.183 4.138,2.197 8.641,3.323 13.549,3.323 4.891,0 9.408,-1.133 13.546,-3.376 4.135,-2.232 7.592,-5.265 10.356,-9.043 2.77,-3.761 4.919,-8.241 6.412,-13.416 1.494,-5.182 2.243,-10.723 2.243,-16.618" /></g><g
           transform="translate(99.2881,173.0728)"
           id="g40"><path
             id="path42"
             style="fill:#1d1d1b;fill-opacity:1;fill-rule:nonzero;stroke:none"
             d="m 0,0 v 1.305 c -0.043,6.636 -2.027,11.919 -5.906,15.853 -3.898,3.941 -9.002,5.929 -15.349,5.929 -3.153,0 -6.834,-0.6 -11.073,-1.772 -0.049,-3.731 -0.119,-8.364 -0.208,-13.93 -0.08,-5.542 -0.16,-10.677 -0.21,-15.341 -0.059,-4.712 -0.151,-11.1 -0.267,-19.148 h 3.43 C -9.855,-27.104 0,-18.087 0,0 m -6.384,-69.174 c 0,4.646 -0.706,8.736 -2.13,12.22 -1.446,3.474 -3.969,6.293 -7.633,8.424 -3.647,2.165 -8.698,3.233 -15.157,3.233 h -2.128 c 0,-3.359 -0.037,-7.489 -0.096,-12.362 -0.057,-4.875 -0.122,-9.852 -0.213,-14.921 -0.082,-5.076 -0.141,-9.132 -0.169,-12.172 -0.03,-3.049 -0.045,-6.563 -0.045,-10.559 9.528,0.074 16.442,2.078 20.723,6.024 4.277,3.943 6.563,10.149 6.848,18.622 z M 21.277,8.424 c 0,-6.218 -1.115,-12.265 -3.311,-18.185 -2.209,-5.898 -5.671,-11.055 -10.392,-15.494 -4.701,-4.391 -10.409,-7.329 -17.121,-8.755 7.585,-2.444 12.749,-6.561 15.485,-12.355 2.72,-5.835 4.152,-12.713 4.255,-20.675 v -1.303 c 0,-14.919 -5.496,-25.24 -16.481,-30.977 -11.004,-5.717 -24.493,-8.582 -40.459,-8.582 h -0.863 c -0.231,11.14 -0.489,22.478 -0.776,34.056 -0.286,11.577 -0.537,24.413 -0.771,38.519 -0.228,14.123 -0.503,28.65 -0.813,43.562 -0.313,14.945 -0.594,27.646 -0.82,38.169 10.425,2.052 19.321,3.084 26.707,3.084 10.145,0 18.549,-1.571 25.222,-4.712 6.671,-3.142 11.693,-7.696 15.027,-13.669 3.355,-5.985 5.052,-13.16 5.111,-21.56 z" /></g><g
           transform="translate(140.8867,163.5361)"
           id="g44"><path
             id="path46"
             style="fill:#1d1d1b;fill-opacity:1;fill-rule:nonzero;stroke:none"
             d="m 0,0 c 0,-4.37 -3.383,-7.926 -7.53,-7.926 -4.14,0 -7.513,3.556 -7.513,7.926 0,4.366 3.373,7.889 7.513,7.889 C -3.383,7.889 0,4.366 0,0" /></g><g
           transform="translate(189.7598,200.021)"
           id="g48"><path
             id="path50"
             style="fill:#1d1d1b;fill-opacity:1;fill-rule:nonzero;stroke:none"
             d="m 0,0 c 0,-3.607 -2.856,-6.553 -6.322,-6.553 -3.462,0 -6.291,2.946 -6.291,6.553 0,3.617 2.829,6.556 6.291,6.556 C -2.856,6.556 0,3.617 0,0" /></g><g
           transform="translate(212.3154,194.9517)"
           id="g52"><path
             id="path54"
             style="fill:#1d1d1b;fill-opacity:1;fill-rule:nonzero;stroke:none"
             d="m 0,0 c 0,-4.062 -2.882,-7.357 -6.361,-7.357 -3.542,0 -6.355,3.295 -6.355,7.357 0,4.079 2.813,7.354 6.355,7.354 C -2.882,7.354 0,4.079 0,0" /></g><g
           transform="translate(225.7461,178.8589)"
           id="g56"><path
             id="path58"
             style="fill:#1d1d1b;fill-opacity:1;fill-rule:nonzero;stroke:none"
             d="m 0,0 c -2.489,-3.156 -5.787,-4.548 -7.364,-3.068 -1.582,1.469 -0.88,5.23 1.543,8.389 2.457,3.154 5.759,4.545 7.383,3.068 C 3.127,6.913 2.439,3.152 0,0" /></g><g
           transform="translate(239.6694,163.5361)"
           id="g60"><path
             id="path62"
             style="fill:#1d1d1b;fill-opacity:1;fill-rule:nonzero;stroke:none"
             d="m 0,0 c 0,-3.062 -2.535,-5.556 -5.661,-5.556 -3.148,0 -5.667,2.494 -5.667,5.556 0,3.061 2.519,5.525 5.667,5.525 C -2.535,5.525 0,3.061 0,0" /></g><g
           transform="translate(245.4751,135.1255)"
           id="g64"><path
             id="path66"
             style="fill:#1d1d1b;fill-opacity:1;fill-rule:nonzero;stroke:none"
             d="m 0,0 c 0,-4.373 -2.929,-7.899 -6.545,-7.899 -3.609,0 -6.558,3.526 -6.558,7.899 0,4.369 2.949,7.913 6.558,7.913 C -2.929,7.913 0,4.369 0,0" /></g><g
           transform="translate(240.3931,108.9731)"
           id="g68"><path
             id="path70"
             style="fill:#1d1d1b;fill-opacity:1;fill-rule:nonzero;stroke:none"
             d="m 0,0 c 0,-4.263 -3.08,-7.698 -6.867,-7.698 -3.787,0 -6.862,3.435 -6.862,7.698 0,4.256 3.075,7.698 6.862,7.698 C -3.08,7.698 0,4.256 0,0" /></g><g
           transform="translate(228.0024,93.4873)"
           id="g72"><path
             id="path74"
             style="fill:#1d1d1b;fill-opacity:1;fill-rule:nonzero;stroke:none"
             d="m 0,0 c 3.051,-2.877 4.147,-6.909 2.446,-9.019 -1.643,-2.118 -5.522,-1.497 -8.553,1.368 -3.039,2.863 -4.198,6.916 -2.484,9.035 C -6.904,3.497 -3.083,2.881 0,0" /></g><g
           transform="translate(146.7222,184.5439)"
           id="g76"><path
             id="path78"
             style="fill:#1d1d1b;fill-opacity:1;fill-rule:nonzero;stroke:none"
             d="M 0,0 C 2.849,-2.019 4.271,-5.232 3.123,-7.126 1.964,-9.022 -1.303,-8.928 -4.148,-6.89 -7.026,-4.845 -8.418,-1.662 -7.293,0.255 -6.144,2.169 -2.885,2.053 0,0" /></g><g
           transform="translate(214.5981,76.4365)"
           id="g80"><path
             id="path82"
             style="fill:#1d1d1b;fill-opacity:1;fill-rule:nonzero;stroke:none"
             d="m 0,0 c 0,-4.37 -3.343,-7.908 -7.503,-7.908 -4.16,0 -7.496,3.538 -7.496,7.908 0,4.369 3.336,7.899 7.496,7.899 C -3.343,7.899 0,4.369 0,0" /></g><g
           transform="translate(194.3975,72.1387)"
           id="g84"><path
             id="path86"
             style="fill:#1d1d1b;fill-opacity:1;fill-rule:nonzero;stroke:none"
             d="m 0,0 c 0,-4.372 -3.389,-7.921 -7.529,-7.921 -4.141,0 -7.535,3.549 -7.535,7.921 0,4.367 3.394,7.897 7.535,7.897 C -3.389,7.897 0,4.367 0,0" /></g><g
           transform="translate(146.8979,86.9312)"
           id="g88"><path
             id="path90"
             style="fill:#1d1d1b;fill-opacity:1;fill-rule:nonzero;stroke:none"
             d="m 0,0 c -2.329,-2.783 -5.445,-3.778 -7.005,-2.267 -1.556,1.529 -0.942,4.996 1.353,7.777 2.287,2.766 5.413,3.773 6.971,2.267 C 2.873,6.232 2.281,2.764 0,0" /></g><g
           transform="translate(168.7744,194.0698)"
           id="g92"><path
             id="path94"
             style="fill:#1d1d1b;fill-opacity:1;fill-rule:nonzero;stroke:none"
             d="m 0,0 c 0,-3.878 -3.208,-7.014 -7.109,-7.014 -3.914,0 -7.119,3.136 -7.119,7.014 0,3.87 3.205,7.013 7.119,7.013 C -3.208,7.013 0,3.87 0,0" /></g><g
           transform="translate(139.0259,110.6626)"
           id="g96"><path
             id="path98"
             style="fill:#1d1d1b;fill-opacity:1;fill-rule:nonzero;stroke:none"
             d="m 0,0 c 0,-4.368 -3.352,-7.901 -7.507,-7.901 -4.16,0 -7.51,3.533 -7.51,7.901 0,4.368 3.35,7.929 7.51,7.929 C -3.352,7.929 0,4.368 0,0" /></g><g
           transform="translate(133.9888,135.7866)"
           id="g100"><path
             id="path102"
             style="fill:#1d1d1b;fill-opacity:1;fill-rule:nonzero;stroke:none"
             d="m 0,0 c 0,-3.285 -3.023,-5.951 -6.705,-5.951 -3.716,0 -6.718,2.666 -6.718,5.951 0,3.276 3.002,5.958 6.718,5.958 C -3.023,5.958 0,3.276 0,0" /></g><g
           transform="translate(167.8579,76.4365)"
           id="g104"><path
             id="path106"
             style="fill:#1d1d1b;fill-opacity:1;fill-rule:nonzero;stroke:none"
             d="m 0,0 c 0,-4.37 -2.987,-7.908 -6.649,-7.908 -3.673,0 -6.663,3.538 -6.663,7.908 0,4.369 2.99,7.899 6.663,7.899 C -2.987,7.899 0,4.369 0,0" /></g><g
           transform="translate(176.0327,160.4868)"
           id="g108"><path
             id="path110"
             style="fill:#1d1d1b;fill-opacity:1;fill-rule:nonzero;stroke:none"
             d="m 0,0 c -0.489,-0.334 -1.144,-0.766 -1.815,-1.194 -0.251,-0.172 -0.482,-0.469 -0.773,-0.469 -1.05,-0.037 -1.523,-0.572 -2.067,-0.961 -2.149,-1.509 -3.93,-3.178 -5.307,-5.001 -1.2,-1.646 -1.741,-3.395 -1.254,-5.156 0.366,-1.473 0.842,-2.962 1.743,-4.286 2.113,-3.133 2.904,-6.335 2.325,-9.659 -0.804,-4.583 1.55,-8.784 3.717,-13.021 0.498,-0.93 1.514,-1.706 3.056,-2.055 4.13,-0.971 8.262,-1.929 12.395,-2.89 1.603,-0.4 2.949,-0.173 4.157,0.637 1.933,1.39 3.596,2.944 4.939,4.584 3.24,3.966 4.72,8.267 5.402,12.707 0.514,3.416 -0.35,6.647 -2.858,9.781 -1.895,2.337 -3.152,4.912 -4.722,7.349 -0.597,0.884 -1.234,1.763 -2.12,2.534 -1.534,1.352 -3.241,2.652 -4.948,3.959 C 10.24,-1.887 8.408,-0.96 5.661,-0.789 3.807,-0.698 2.066,-0.308 0,0 m -12.308,-26.147 c 0.461,3.147 -0.264,6.205 -1.257,9.301 -1.581,5.191 0.629,9.681 6.359,13.523 1.503,0.96 3.095,1.81 4.604,2.73 0.498,0.317 0.894,0.679 1.175,1.057 0.938,1.469 1.576,1.655 4.115,1.301 C 3.94,1.594 5.185,1.401 6.486,1.44 c 3.694,0.091 6.073,-1.26 8.12,-2.928 1.654,-1.415 3.299,-2.869 4.82,-4.356 0.902,-0.92 1.89,-1.934 2.344,-2.988 1.167,-2.624 2.755,-5.16 4.658,-7.612 1.621,-2.099 3.001,-4.264 3.173,-6.643 0.156,-2.701 -0.261,-5.369 -1.118,-8.019 -1.314,-4.14 -3.62,-8.08 -7.337,-11.66 -1.013,-0.938 -2.194,-1.795 -3.392,-2.626 -1.601,-1.215 -3.751,-1.471 -6.079,-1.023 -1.42,0.29 -2.754,0.677 -4.163,0.939 -1.909,0.351 -3.831,0.611 -5.771,0.915 -0.395,0.058 -0.884,0.097 -1.317,0.13 -4.191,0.339 -7.143,1.667 -8.723,4.114 -2.896,4.296 -5.042,8.665 -4.089,13.455 0.066,0.22 0.038,0.451 0.08,0.715" /></g><g
           transform="translate(172.2446,170.106)"
           id="g112"><path
             id="path114"
             style="fill:#1d1d1b;fill-opacity:1;fill-rule:nonzero;stroke:none"
             d="m 0,0 c -0.681,-0.465 -1.571,-1.111 -2.554,-1.748 -0.377,-0.257 -0.721,-0.701 -1.086,-0.701 -1.556,-0.059 -2.209,-0.825 -3.026,-1.403 -3.06,-2.228 -5.582,-4.684 -7.535,-7.364 -1.759,-2.426 -2.499,-4.968 -1.833,-7.586 0.539,-2.147 1.197,-4.349 2.518,-6.296 3.037,-4.589 4.135,-9.311 3.334,-14.188 -1.204,-6.764 2.178,-12.928 5.33,-19.167 0.688,-1.394 2.119,-2.503 4.331,-3.031 5.886,-1.47 11.852,-2.864 17.739,-4.276 2.316,-0.538 4.274,-0.227 5.933,0.973 2.828,2.062 5.107,4.291 7.056,6.721 4.708,5.861 6.818,12.174 7.803,18.684 0.712,5.045 -0.51,9.793 -4.128,14.377 -2.733,3.481 -4.468,7.244 -6.774,10.838 -0.805,1.29 -1.81,2.573 -3.035,3.714 -2.219,2.015 -4.644,3.927 -7.053,5.854 -2.324,1.832 -4.996,3.2 -8.922,3.448 C 5.508,-1.011 2.955,-0.437 0,0 m -17.592,-38.479 c 0.687,4.637 -0.392,9.185 -1.74,13.731 -2.329,7.607 0.832,14.248 9.091,19.85 2.072,1.403 4.392,2.676 6.537,4.034 0.688,0.437 1.295,0.993 1.66,1.564 1.377,2.183 2.215,2.442 5.911,1.924 1.792,-0.263 3.616,-0.528 5.429,-0.504 5.329,0.152 8.689,-1.844 11.558,-4.31 2.405,-2.096 4.776,-4.195 6.913,-6.381 1.346,-1.396 2.723,-2.848 3.394,-4.386 1.709,-3.897 3.956,-7.594 6.691,-11.219 2.327,-3.103 4.315,-6.26 4.498,-9.755 0.197,-3.988 -0.341,-7.908 -1.56,-11.807 -1.91,-6.121 -5.186,-11.898 -10.521,-17.146 -1.433,-1.396 -3.1,-2.645 -4.788,-3.89 -2.397,-1.742 -5.43,-2.138 -8.79,-1.466 -1.976,0.382 -3.935,0.987 -5.937,1.365 -2.686,0.501 -5.44,0.909 -8.194,1.343 -0.638,0.101 -1.275,0.122 -1.904,0.196 -5.997,0.468 -10.228,2.456 -12.538,6.045 -4.095,6.318 -7.19,12.768 -5.816,19.763 0.105,0.349 0.105,0.699 0.106,1.049" /></g><g
           transform="translate(179.9849,150.7266)"
           id="g116"><path
             id="path118"
             style="fill:#1d1d1b;fill-opacity:1;fill-rule:nonzero;stroke:none"
             d="m 0,0 c -0.226,-0.17 -0.543,-0.39 -0.881,-0.647 -0.147,-0.088 -0.266,-0.263 -0.385,-0.263 -0.533,0 -0.766,-0.288 -1.008,-0.523 -1.07,-0.79 -1.944,-1.711 -2.615,-2.711 -0.61,-0.875 -0.871,-1.838 -0.632,-2.799 0.188,-0.79 0.395,-1.572 0.867,-2.314 1.046,-1.702 1.404,-3.441 1.142,-5.225 -0.425,-2.512 0.758,-4.792 1.818,-7.07 0.26,-0.521 0.745,-0.93 1.503,-1.134 2.05,-0.524 4.064,-1.049 6.082,-1.572 0.83,-0.187 1.49,-0.088 2.055,0.353 0.992,0.779 1.767,1.591 2.423,2.498 1.629,2.146 2.363,4.496 2.701,6.88 0.219,1.879 -0.181,3.628 -1.411,5.312 -0.959,1.282 -1.543,2.664 -2.35,3.997 -0.292,0.46 -0.605,0.951 -1.043,1.361 -0.741,0.763 -1.575,1.462 -2.419,2.162 -0.829,0.696 -1.72,1.19 -3.082,1.273 C 1.889,-0.38 1.02,-0.156 0,0 m -6.049,-14.202 c 0.216,1.732 -0.146,3.413 -0.637,5.069 -0.754,2.799 0.32,5.252 3.142,7.349 0.734,0.517 1.512,0.962 2.261,1.487 0.242,0.159 0.436,0.349 0.583,0.556 C -0.226,1.065 0.045,1.17 1.332,0.971 1.914,0.875 2.566,0.764 3.186,0.785 5.005,0.839 6.188,0.124 7.195,-0.82 c 0.806,-0.756 1.6,-1.529 2.349,-2.348 0.46,-0.497 0.94,-1.046 1.156,-1.593 0.604,-1.449 1.359,-2.811 2.308,-4.156 0.784,-1.143 1.469,-2.315 1.563,-3.609 0.067,-1.449 -0.124,-2.9 -0.56,-4.338 -0.642,-2.248 -1.779,-4.407 -3.627,-6.343 -0.469,-0.5 -1.061,-0.965 -1.626,-1.404 -0.826,-0.667 -1.869,-0.789 -3.038,-0.558 -0.695,0.14 -1.345,0.379 -2.035,0.498 -0.931,0.199 -1.869,0.325 -2.814,0.499 -0.195,0.038 -0.452,0.059 -0.677,0.082 -2.059,0.18 -3.489,0.887 -4.298,2.223 -1.402,2.33 -2.454,4.695 -1.98,7.308 0.035,0.1 0.029,0.25 0.035,0.357" /></g><g
           transform="translate(168.2783,178.8677)"
           id="g120"><path
             id="path122"
             style="fill:#1d1d1b;fill-opacity:1;fill-rule:nonzero;stroke:none"
             d="M 0,0 C -0.896,-0.621 -2.177,-1.452 -3.451,-2.295 -3.977,-2.64 -4.46,-3.252 -4.98,-3.252 c -2.102,-0.077 -2.963,-1.095 -4.083,-1.882 -4.177,-2.933 -7.62,-6.217 -10.246,-9.799 -2.391,-3.197 -3.412,-6.612 -2.538,-10.095 0.74,-2.86 1.651,-5.772 3.447,-8.396 4.142,-6.11 5.644,-12.393 4.5,-18.889 -1.598,-9.007 3.024,-17.23 7.286,-25.532 0.942,-1.847 2.929,-3.327 5.914,-4.03 8.025,-1.931 16.1,-3.789 24.122,-5.676 3.173,-0.737 5.833,-0.313 8.091,1.301 3.823,2.715 6.991,5.699 9.616,8.934 6.38,7.822 9.3,16.231 10.58,24.88 0.987,6.731 -0.702,13.049 -5.587,19.184 -3.731,4.585 -6.121,9.606 -9.228,14.383 -1.097,1.715 -2.459,3.46 -4.164,4.954 -2.964,2.703 -6.313,5.241 -9.599,7.805 C 20,-3.671 16.364,-1.849 11.032,-1.522 7.497,-1.33 4.041,-0.579 0,0 m -23.949,-51.229 c 0.917,6.177 -0.517,12.213 -2.377,18.258 -3.132,10.132 1.162,18.972 12.395,26.48 2.796,1.857 5.988,3.544 8.91,5.368 0.915,0.584 1.749,1.303 2.269,2.067 1.88,2.892 2.994,3.238 8.03,2.546 2.403,-0.336 4.9,-0.7 7.37,-0.627 7.286,0.177 11.827,-2.452 15.765,-5.768 3.266,-2.789 6.444,-5.595 9.419,-8.491 1.815,-1.83 3.672,-3.789 4.605,-5.85 2.317,-5.161 5.372,-10.134 9.064,-14.952 3.228,-4.11 5.889,-8.306 6.158,-12.991 0.299,-5.288 -0.459,-10.532 -2.125,-15.694 -2.656,-8.139 -7.105,-15.879 -14.377,-22.86 -1.909,-1.833 -4.181,-3.523 -6.482,-5.164 -3.202,-2.326 -7.37,-2.846 -11.952,-1.971 -2.702,0.53 -5.326,1.317 -8.08,1.835 -3.677,0.686 -7.428,1.21 -11.194,1.77 -0.829,0.142 -1.702,0.192 -2.574,0.25 -8.119,0.67 -13.907,3.308 -17.049,8.064 -5.537,8.447 -9.78,17.027 -7.904,26.329 0.124,0.483 0.124,0.929 0.129,1.401" /></g><g
           transform="translate(328.2432,40.3262)"
           id="g124"><path
             id="path126"
             style="fill:#1d1d1b;fill-opacity:1;fill-rule:nonzero;stroke:none"
             d="m 0,0 c 0,-0.955 -0.733,-2.742 -2.194,-5.359 -1.743,-3.114 -3.414,-4.674 -5.014,-4.674 h -6.482 c -0.664,0 -1.462,0.34 -2.405,1.011 -1.358,0.994 -2.557,2.466 -3.601,4.412 -0.596,1.063 -1.149,2.06 -1.673,2.98 -1.046,1.875 -1.568,2.921 -1.568,3.135 v 12.019 c 0,0.883 0.976,2.766 2.928,5.636 2.124,3.155 3.776,4.732 4.961,4.732 h 6.007 c 0.73,-0.436 1.289,-0.747 1.675,-0.931 1.218,-0.652 1.914,-0.982 2.087,-0.982 0.312,0 0.647,0.197 0.993,0.583 0.803,0.887 1.443,1.33 1.935,1.33 0.797,0 1.202,-0.408 1.202,-1.223 V 12.317 c 0,-0.462 -0.235,-0.928 -0.709,-1.403 -0.469,-0.484 -0.829,-0.721 -1.07,-0.721 -0.523,0 -0.925,0.125 -1.204,0.371 -0.274,0.25 -0.414,0.785 -0.414,1.603 v 1.013 c 0,0.391 -0.039,0.659 -0.106,0.802 -0.94,1.74 -1.673,3.039 -2.195,3.891 -1.636,2.631 -2.837,3.946 -3.602,3.946 -0.244,0 -0.522,-0.159 -0.836,-0.479 -0.313,-0.317 -0.578,-0.475 -0.784,-0.475 -0.105,0 -0.365,0.158 -0.786,0.475 -0.415,0.32 -0.73,0.479 -0.937,0.479 -0.351,0 -1.484,-1.347 -3.397,-4.041 -1.116,-1.556 -1.883,-2.819 -2.298,-3.776 -0.108,-0.216 -0.178,-0.515 -0.209,-0.906 -0.038,-0.387 -0.054,-0.851 -0.054,-1.384 0,-0.142 0.007,-0.565 0.024,-1.272 0.019,-0.711 0.011,-1.103 -0.024,-1.173 -0.3,-0.392 -0.585,-0.781 -0.85,-1.172 -0.201,-0.531 -0.299,-1.311 -0.299,-2.335 0,-1.598 0.453,-3.335 1.358,-5.214 1.078,-2.271 2.803,-4.628 5.171,-7.077 h 5.069 c 1.077,0 2.326,1.388 3.734,4.17 1.413,2.778 2.675,4.167 3.787,4.167 0.701,0 1.171,-0.161 1.412,-0.48 C -0.124,1.008 0,0.563 0,0" /></g><g
           transform="translate(346.8379,39.4795)"
           id="g128"><path
             id="path130"
             style="fill:#1d1d1b;fill-opacity:1;fill-rule:nonzero;stroke:none"
             d="m 0,0 v 9.021 c -0.069,0.071 -0.937,1.136 -2.61,3.188 -1.008,1.24 -2.091,2.089 -3.239,2.55 -0.665,-0.112 -1.236,-0.16 -1.725,-0.16 -0.277,0 -0.524,0.034 -0.729,0.104 -0.211,0.072 -0.366,0.223 -0.469,0.453 -0.107,0.23 -0.233,0.341 -0.365,0.341 -1.642,0 -3.279,-1.429 -4.913,-4.296 -1.327,-2.337 -1.983,-3.911 -1.983,-4.727 V 0 c 0,-0.748 0.805,-1.868 2.427,-3.372 1.618,-1.505 2.689,-2.257 3.212,-2.257 h 5.068 c 0.871,0 1.756,0.532 2.663,1.592 C -1.79,-2.693 -0.905,-1.347 0,0 M 4.026,5.778 C 4.026,4.686 3.921,3.929 3.709,3.502 3.398,3.184 3.085,2.865 2.771,2.551 2.702,2.337 2.67,2.148 2.67,1.97 2.67,1.76 2.702,1.403 2.771,0.913 2.843,0.417 2.875,0.032 2.875,-0.248 2.875,-0.604 2.826,-0.937 2.717,-1.256 2.616,-1.57 2.216,-2.067 1.514,-2.735 0.68,-3.547 -0.156,-4.358 -0.992,-5.167 -1.062,-5.275 -1.102,-5.548 -1.118,-5.989 -1.141,-6.43 -1.181,-6.686 -1.25,-6.759 l -7.316,-2.693 c -1.5,0 -3.307,0.955 -5.432,2.865 -2.965,2.658 -4.478,4.002 -4.544,4.037 v 14.175 c 0.866,0.85 1.549,1.646 2.034,2.388 0.35,0.673 0.7,1.344 1.047,2.016 h 1.254 0.728 c 0.491,0.129 0.975,0.406 1.467,0.829 0.07,0.067 0.173,0.177 0.313,0.341 0.139,0.037 0.586,0.044 1.33,0.03 0.746,-0.019 1.177,-0.03 1.28,-0.03 0.349,0 0.601,0.03 0.757,0.082 0.157,0.057 0.396,0.252 0.71,0.585 0.313,0.332 0.609,0.503 0.882,0.503 0.281,0 0.545,-0.16 0.789,-0.48 0.139,-0.212 0.258,-0.334 0.367,-0.369 0.413,-0.214 0.835,-0.321 1.25,-0.321 0.24,0 0.523,0.018 0.835,0.051 0.313,0.04 0.541,0.018 0.679,-0.051 0.627,-0.32 1.811,-1.656 3.553,-4.021 2.197,-2.958 3.293,-5.424 3.293,-7.4" /></g><g
           transform="translate(377.0381,31.252)"
           id="g132"><path
             id="path134"
             style="fill:#1d1d1b;fill-opacity:1;fill-rule:nonzero;stroke:none"
             d="m 0,0 c 0,-0.144 -0.062,-0.329 -0.181,-0.561 -0.125,-0.23 -0.22,-0.416 -0.292,-0.555 h -9.663 c -0.071,0.279 -0.127,0.497 -0.183,0.637 -0.052,0.143 -0.077,0.3 -0.077,0.479 0,0.318 0.767,0.692 2.297,1.119 1.532,0.423 2.303,1.592 2.303,3.509 0,1.311 -0.253,2.166 -0.749,2.558 -0.234,0.177 -0.351,0.496 -0.351,0.958 0,0.174 0.186,0.514 0.547,1.011 0.367,0.496 0.553,0.938 0.553,1.329 0,0.179 -0.249,0.62 -0.733,1.333 -0.243,0.354 -0.367,0.728 -0.367,1.116 v 5.109 c -0.486,0.496 -0.977,0.991 -1.46,1.492 -0.562,0.319 -1.241,0.479 -2.04,0.479 -1.117,0 -2.911,-1.321 -5.378,-3.958 -2.478,-2.642 -3.712,-4.637 -3.712,-5.991 V 4.873 c 0,-1.497 0.711,-2.624 2.141,-3.373 0.734,-0.353 1.46,-0.71 2.193,-1.063 -0.906,-0.539 -1.718,-0.931 -2.427,-1.182 -0.713,-0.249 -1.508,-0.371 -2.375,-0.371 -0.772,0 -1.538,0.066 -2.304,0.213 -1.322,0.245 -2.539,0.693 -3.657,1.34 1.323,0.353 2.266,0.654 2.821,0.906 1.014,0.5 1.516,1.585 1.516,3.264 0,0.819 -0.189,1.515 -0.571,2.085 -0.384,0.571 -0.577,1.036 -0.577,1.389 0,0.321 0.193,0.763 0.577,1.312 0.382,0.552 0.571,1.007 0.571,1.364 v 6.314 c 0,0.213 -0.325,0.757 -0.984,1.63 -0.649,0.873 -1.15,1.312 -1.496,1.312 -0.241,-0.187 -0.427,-0.319 -0.567,-0.392 -0.48,-0.297 -0.912,-0.539 -1.292,-0.723 -0.169,0.636 -0.257,1.115 -0.257,1.432 0,0.708 0.112,1.175 0.34,1.406 0.227,0.229 0.618,0.346 1.181,0.346 h 1.252 c 2.099,0 3.387,-0.584 3.876,-1.752 0.492,-1.167 0.905,-1.753 1.258,-1.753 0.625,0 1.815,0.778 3.559,2.339 1.747,1.555 3.404,2.333 4.978,2.333 1.5,0 2.922,-0.915 4.266,-2.739 1.346,-1.824 2.017,-3.628 2.017,-5.402 0,-0.955 -0.102,-1.605 -0.304,-1.941 -0.203,-0.334 -0.415,-0.668 -0.639,-0.986 0.244,-0.35 0.461,-0.668 0.657,-0.955 0.187,-0.287 0.286,-0.587 0.286,-0.906 V 3.299 c 0,-0.889 0.572,-1.581 1.722,-2.075 C -0.572,0.724 0,0.318 0,0" /></g><g
           transform="translate(418.8345,42.502)"
           id="g136"><path
             id="path138"
             style="fill:#1d1d1b;fill-opacity:1;fill-rule:nonzero;stroke:none"
             d="m 0,0 v 5.523 c 0,0.494 -0.443,1.882 -1.328,4.167 -0.887,2.285 -1.539,3.565 -1.966,3.848 -0.847,-0.92 -1.431,-1.802 -1.735,-2.649 C -5.328,10.036 -5.48,9.134 -5.48,8.179 V 7.248 6.428 C -5.48,5.968 -5.558,5.596 -5.69,5.309 -6.308,5.025 -6.806,4.637 -7.202,4.142 -7.588,3.648 -7.781,2.957 -7.781,2.07 c 0,-0.919 0.117,-1.52 0.364,-1.8 0.255,-0.287 0.674,-0.43 1.272,-0.43 0.217,0 0.631,0.027 1.252,0.08 0.616,0.056 0.992,0.08 1.13,0.08 l 1.695,0 h 1.436 z m 9.356,-10.88 c 0,-0.496 -0.126,-0.825 -0.376,-0.982 -0.241,-0.161 -0.602,-0.239 -1.062,-0.239 h -0.9 c -0.347,0 -0.737,0.074 -1.155,0.228 -1.029,0.378 -1.802,0.563 -2.335,0.563 -0.493,0 -1.203,-0.101 -2.122,-0.318 l -0.043,0.854 c 0,0.283 0.383,0.776 1.148,1.486 0.765,0.711 1.145,1.361 1.145,1.963 0,0.248 -0.073,0.493 -0.235,0.745 -0.51,0.742 -0.776,1.183 -0.811,1.326 v 0.902 c 0,0.14 -0.031,0.326 -0.102,0.557 -0.07,0.231 -0.296,0.595 -0.682,1.091 h -9.545 c -0.426,0 -0.912,-0.867 -1.475,-2.607 -0.173,-0.562 -0.399,-1.451 -0.679,-2.651 l 1.674,-3.449 c -0.173,-0.179 -0.348,-0.34 -0.526,-0.48 -0.179,-0.139 -0.381,-0.21 -0.628,-0.21 h -5.535 l -0.731,0.466 c 0.278,0.553 0.591,1 0.939,1.35 0.345,0.347 0.814,0.518 1.407,0.518 h 1.356 c 0.045,0.388 -0.032,0.826 -0.204,1.301 -0.171,0.476 -0.262,0.84 -0.262,1.088 0,0.462 0.18,0.875 0.553,1.249 0.36,0.371 0.582,0.661 0.649,0.875 0.032,0.069 0.042,0.682 0.024,1.833 -0.015,1.151 -0.024,1.76 -0.024,1.83 0,0.461 0.014,0.728 0.054,0.797 0.035,0.074 0.388,0.444 1.076,1.116 0.672,0.672 1.072,1.147 1.165,1.432 v 1.38 c 0,0.565 0.065,1.142 0.182,1.726 0.11,0.585 0.374,1.353 0.778,2.308 0.093,0.248 0.166,0.608 0.199,1.086 0.027,0.484 0.044,0.773 0.044,0.88 0,0.458 -0.006,1.014 -0.024,1.673 -0.016,0.65 -0.005,1.017 0.024,1.088 0.584,1.381 1.155,3.184 1.702,5.412 0.544,2.231 1.27,3.347 2.162,3.347 1.095,0 1.851,-0.322 2.264,-0.957 0.307,-0.46 0.462,-1.15 0.462,-2.072 v -0.849 -0.793 c 0,-0.177 0.031,-0.374 0.097,-0.587 0.961,-2.05 1.624,-3.82 2.001,-5.31 C 1.268,9.027 1.406,8 1.406,7.007 V 5.309 C 1.406,5.025 1.483,4.8 1.624,4.619 2.027,4.268 2.318,3.998 2.487,3.823 3.042,3.293 3.366,2.921 3.47,2.709 3.782,1.399 4,0.406 4.135,-0.262 4.583,-2.28 4.81,-3.396 4.81,-3.606 c 0,-2.411 0.758,-4.093 2.273,-5.045 1.516,-0.958 2.273,-1.701 2.273,-2.229" /></g><g
           transform="translate(456.5576,30.1357)"
           id="g140"><path
             id="path142"
             style="fill:#1d1d1b;fill-opacity:1;fill-rule:nonzero;stroke:none"
             d="m 0,0 h -5.015 c -0.594,0.566 -0.92,0.885 -0.999,0.955 -0.313,0.287 -0.468,0.549 -0.468,0.798 0.561,0.496 1.063,1.172 1.516,2.025 0.449,0.85 0.682,2.022 0.682,3.509 0,2.092 -0.268,3.334 -0.801,3.73 -0.264,0.206 -0.398,0.58 -0.398,1.112 0,0.318 0.192,0.78 0.601,1.385 0.392,0.603 0.598,1.15 0.598,1.652 0,0.637 -0.166,1.185 -0.504,1.646 -0.231,0.249 -0.449,0.516 -0.65,0.798 -0.032,0.18 -0.045,0.496 -0.045,0.958 v 1.011 1.067 c 0,0.851 -0.095,1.495 -0.267,1.94 -0.171,0.446 -0.538,0.669 -1.093,0.669 -1.359,-0.964 -2.374,-1.764 -3.031,-2.403 -2.061,-1.992 -3.081,-3.877 -3.081,-5.653 0,-1.212 0.084,-2.049 0.256,-2.507 0.214,-0.392 0.437,-0.784 0.685,-1.175 -0.248,-0.354 -0.465,-0.843 -0.657,-1.466 -0.192,-0.623 -0.284,-1.554 -0.284,-2.799 0,-2.491 0.552,-3.803 1.671,-3.946 1.112,-0.144 1.669,-0.675 1.669,-1.599 0,-0.5 -0.588,-0.909 -1.774,-1.228 C -12.577,0.157 -13.466,0 -14.059,0 c -0.659,0 -1.117,0.115 -1.383,0.346 -0.26,0.231 -0.388,0.556 -0.388,0.987 0,0.493 0.157,1.046 0.472,1.651 0.033,0.109 0.116,0.248 0.255,0.427 v 17.39 c -0.314,0.566 -0.554,0.973 -0.727,1.223 -0.59,0.816 -1.149,1.231 -1.671,1.231 -0.732,0 -1.603,-0.784 -2.616,-2.346 -1.423,-2.164 -2.159,-3.263 -2.191,-3.299 V 4.149 c 0.868,-0.815 1.375,-1.312 1.517,-1.491 0.548,-0.639 0.827,-1.133 0.827,-1.49 0,-0.458 -0.087,-0.77 -0.287,-0.931 C -20.441,0.077 -20.712,0 -21.057,0 h -1.251 -1.044 c -0.423,0 -0.752,0.087 -0.999,0.266 -0.238,0.174 -0.362,0.51 -0.362,1.004 v 19.231 c 0,0.954 -0.599,1.43 -1.804,1.43 -1.203,0 -1.804,0.371 -1.804,1.116 0,0.668 0.3,1.231 0.89,1.692 0.595,0.459 1.284,0.69 2.094,0.69 0.969,0 1.579,-0.215 1.827,-0.637 0.24,-0.427 0.829,-0.637 1.777,-0.637 0.659,0 1.176,0.21 1.566,0.637 0.378,0.422 1.265,0.637 2.666,0.637 1.397,0 2.283,-0.215 2.662,-0.637 0.384,-0.427 0.837,-0.637 1.357,-0.637 0.283,0 1.409,0.407 3.398,1.218 1.987,0.816 3.068,1.221 3.241,1.221 0.908,0 1.917,-0.548 3.03,-1.641 1.111,-1.102 1.67,-2.091 1.67,-2.977 V 6.37 c 0,-0.217 0.289,-0.891 0.861,-2.043 C -0.71,3.177 -0.283,2.477 0,2.225 Z" /></g><g
           transform="translate(475.1572,39.4795)"
           id="g144"><path
             id="path146"
             style="fill:#1d1d1b;fill-opacity:1;fill-rule:nonzero;stroke:none"
             d="m 0,0 v 9.021 c -0.072,0.071 -0.943,1.136 -2.612,3.188 -1.009,1.24 -2.09,2.089 -3.242,2.55 -0.659,-0.112 -1.236,-0.16 -1.72,-0.16 -0.282,0 -0.532,0.034 -0.737,0.104 -0.207,0.072 -0.364,0.223 -0.465,0.453 -0.111,0.23 -0.233,0.341 -0.368,0.341 -1.636,0 -3.272,-1.429 -4.91,-4.296 -1.331,-2.337 -1.987,-3.911 -1.987,-4.727 V 0 c 0,-0.748 0.809,-1.868 2.429,-3.372 1.626,-1.505 2.695,-2.257 3.211,-2.257 h 5.071 c 0.866,0 1.751,0.532 2.66,1.592 C -1.799,-2.693 -0.908,-1.347 0,0 M 4.02,5.778 C 4.02,4.686 3.916,3.929 3.706,3.502 3.392,3.184 3.08,2.865 2.765,2.551 2.697,2.337 2.658,2.148 2.658,1.97 2.658,1.76 2.697,1.403 2.765,0.913 2.839,0.417 2.877,0.032 2.877,-0.248 2.877,-0.604 2.821,-0.937 2.716,-1.256 2.609,-1.57 2.204,-2.067 1.517,-2.735 0.675,-3.547 -0.156,-4.358 -0.996,-5.167 -1.062,-5.275 -1.104,-5.548 -1.129,-5.989 -1.147,-6.43 -1.187,-6.686 -1.255,-6.759 l -7.318,-2.693 c -1.495,0 -3.31,0.955 -5.435,2.865 -2.954,2.658 -4.47,4.002 -4.543,4.037 v 14.175 c 0.871,0.85 1.552,1.646 2.041,2.388 0.345,0.673 0.692,1.344 1.047,2.016 h 1.25 0.736 c 0.484,0.129 0.97,0.406 1.463,0.829 0.065,0.067 0.171,0.177 0.313,0.341 0.134,0.037 0.577,0.044 1.326,0.03 0.747,-0.019 1.176,-0.03 1.284,-0.03 0.346,0 0.602,0.03 0.757,0.082 0.159,0.057 0.389,0.252 0.704,0.585 0.317,0.332 0.61,0.503 0.887,0.503 0.279,0 0.544,-0.16 0.783,-0.48 0.139,-0.212 0.259,-0.334 0.369,-0.369 0.422,-0.214 0.831,-0.321 1.251,-0.321 0.248,0 0.525,0.018 0.841,0.051 0.313,0.04 0.534,0.018 0.676,-0.051 0.626,-0.32 1.81,-1.656 3.553,-4.021 2.189,-2.958 3.29,-5.424 3.29,-7.4" /></g><g
           transform="translate(505.5654,49.46)"
           id="g148"><path
             id="path150"
             style="fill:#1d1d1b;fill-opacity:1;fill-rule:nonzero;stroke:none"
             d="m 0,0 c 0,-1.311 -0.223,-2.222 -0.661,-2.735 -0.433,-0.515 -1.206,-0.772 -2.318,-0.772 -0.735,0 -1.237,0.197 -1.517,0.586 -0.279,0.392 -0.418,0.922 -0.418,1.592 0,0.283 0.033,0.759 0.106,1.433 0.069,0.672 0.106,1.167 0.106,1.486 0,0.672 -0.126,1.198 -0.369,1.569 -0.241,0.369 -0.749,0.556 -1.515,0.556 -0.418,0 -1.129,-0.283 -2.143,-0.847 -1.357,-0.741 -2.667,-1.742 -3.918,-3.008 -0.695,-0.703 -1.513,-1.872 -2.451,-3.488 -1.081,-1.868 -1.627,-3.204 -1.627,-4.016 v -6.548 c 0,-1.197 0.56,-2.022 1.672,-2.484 0.734,-0.311 1.832,-0.472 3.298,-0.472 h 1.067 0.915 c 0.11,-0.532 0.156,-0.889 0.156,-1.064 0,-0.175 -0.142,-0.549 -0.417,-1.112 H -25.6 c -0.077,0.139 -0.18,0.265 -0.315,0.367 -0.142,0.108 -0.21,0.353 -0.21,0.745 0,0.528 1.209,0.917 3.632,1.165 2.417,0.245 3.628,1.183 3.628,2.81 v 13.824 c 0,1.662 -1.004,2.564 -3.007,2.703 -2.002,0.14 -3.002,0.988 -3.002,2.545 0,1.199 0.054,1.88 0.155,2.039 0.108,0.157 0.594,0.238 1.466,0.238 0.625,0 1.22,-0.205 1.779,-0.612 0.555,-0.404 1.655,-0.61 3.292,-0.61 0.973,0 1.491,-0.592 1.566,-1.778 0.066,-1.184 0.451,-1.777 1.151,-1.777 0.381,0 0.85,0.283 1.408,0.849 1.46,1.452 2.738,2.354 3.813,2.706 h 2.141 c 0.171,0.071 0.43,0.294 0.759,0.666 0.329,0.375 0.789,0.556 1.382,0.556 1.295,0 2.608,-0.769 3.946,-2.308 C -0.676,3.264 0,1.662 0,0" /></g><g
           transform="translate(520.2461,33.127)"
           id="g152"><path
             id="path154"
             style="fill:#1d1d1b;fill-opacity:1;fill-rule:nonzero;stroke:none"
             d="m 0,0 -1.151,-0.161 0.203,-1.798 C -1.228,-2.064 -1.503,-2.155 -1.779,-2.226 -2.199,-2.4 -2.447,-2.575 -2.514,-2.75 -2.93,-4.16 -3.279,-5.202 -3.557,-5.874 -4.466,-7.952 -5.421,-8.991 -6.43,-8.991 c -0.311,0 -0.731,0.262 -1.249,0.794 -1.361,1.375 -2.109,2.078 -2.25,2.113 -0.701,0.28 -1.342,0.654 -1.936,1.112 -0.764,0.595 -1.146,1.148 -1.146,1.638 V 1 c 0.453,0.847 0.849,1.466 1.204,1.851 1.078,1.273 2.205,1.907 3.395,1.907 0.904,0 2.323,-0.431 4.254,-1.295 C -2.224,2.596 -0.843,1.641 0,0.58 Z" /></g><g
           transform="translate(535.4453,33.127)"
           id="g156"><path
             id="path158"
             style="fill:#1d1d1b;fill-opacity:1;fill-rule:nonzero;stroke:none"
             d="m 0,0 -1.153,-0.161 0.214,-1.798 C -1.218,-2.064 -1.499,-2.155 -1.779,-2.226 -2.197,-2.4 -2.44,-2.575 -2.511,-2.75 -2.927,-4.16 -3.276,-5.202 -3.559,-5.874 -4.461,-7.952 -5.42,-8.991 -6.427,-8.991 c -0.316,0 -0.727,0.262 -1.256,0.794 -1.359,1.375 -2.108,2.078 -2.246,2.113 -0.698,0.28 -1.338,0.654 -1.929,1.112 -0.766,0.595 -1.153,1.148 -1.153,1.638 V 1 c 0.454,0.847 0.856,1.466 1.201,1.851 1.081,1.273 2.213,1.907 3.396,1.907 0.906,0 2.326,-0.431 4.258,-1.295 C -2.224,2.596 -0.84,1.641 0,0.58 Z" /></g><g
           transform="translate(550.6475,33.127)"
           id="g160"><path
             id="path162"
             style="fill:#1d1d1b;fill-opacity:1;fill-rule:nonzero;stroke:none"
             d="m 0,0 -1.147,-0.161 0.206,-1.798 c -0.282,-0.105 -0.558,-0.196 -0.834,-0.267 -0.42,-0.174 -0.663,-0.349 -0.736,-0.524 -0.414,-1.41 -0.762,-2.452 -1.042,-3.124 -0.91,-2.078 -1.863,-3.117 -2.869,-3.117 -0.316,0 -0.734,0.262 -1.256,0.794 -1.36,1.375 -2.109,2.078 -2.251,2.113 -0.698,0.28 -1.34,0.654 -1.929,1.112 -0.768,0.595 -1.153,1.148 -1.153,1.638 V 1 c 0.449,0.847 0.852,1.466 1.201,1.851 1.079,1.273 2.215,1.907 3.398,1.907 0.908,0 2.321,-0.431 4.259,-1.295 C -2.22,2.596 -0.836,1.641 0,0.58 Z" /></g></g></g></g></svg>