<?xml version="1.0" standalone="no"?>
<!DOCTYPE svg PUBLIC "-//W3C//DTD SVG 20010904//EN"
 "http://www.w3.org/TR/2001/REC-SVG-20010904/DTD/svg10.dtd">
<svg version="1.0" xmlns="http://www.w3.org/2000/svg"
 width="200.000000pt" height="200.000000pt" viewBox="0 0 200.000000 200.000000"
 preserveAspectRatio="xMidYMid meet">

<g transform="translate(0.000000,200.000000) scale(0.100000,-0.100000)"
fill="#000000" stroke="none">
<path d="M420 1961 c-86 -28 -159 -90 -201 -171 -34 -65 -34 -204 0 -272 l23
-48 -30 -25 c-47 -40 -110 -140 -132 -212 -22 -72 -26 -189 -9 -262 25 -110
117 -235 219 -301 66 -42 156 -70 237 -72 64 -2 65 -2 94 -44 23 -34 39 -46
72 -54 23 -6 47 -13 54 -15 8 -3 10 -21 6 -59 -5 -51 -4 -57 25 -85 17 -17 39
-31 50 -31 47 0 51 -7 35 -69 l-15 -58 32 -51 c25 -40 40 -54 68 -62 88 -24
202 -50 220 -50 35 0 57 43 86 165 l27 118 -82 136 c-46 75 -118 192 -160 260
-65 105 -75 127 -66 143 7 10 23 18 39 18 15 0 57 10 93 21 l65 22 36 -28 c33
-25 40 -27 100 -20 l64 7 0 -36 c0 -25 8 -45 28 -67 26 -29 33 -32 84 -30 l56
1 6 -54 c7 -55 27 -82 87 -120 24 -15 35 -15 130 -1 199 29 195 24 170 195 -9
63 -21 123 -27 132 -5 9 -114 96 -243 192 l-234 176 2 78 c4 136 -40 252 -131
348 -99 105 -211 154 -350 154 -46 0 -98 -4 -117 -10 -32 -9 -35 -7 -76 38
-67 74 -133 105 -230 109 -44 1 -91 -1 -105 -6z m165 -100 c49 -22 105 -68
105 -86 0 -7 -15 -23 -34 -34 -40 -25 -104 -93 -131 -139 -14 -24 -26 -32 -47
-32 -15 0 -55 -9 -88 -21 -33 -11 -64 -18 -70 -14 -5 3 -17 31 -26 62 -23 80
-8 146 49 208 66 72 160 94 242 56z m515 -168 c81 -38 124 -73 166 -138 50
-79 68 -153 61 -255 -4 -47 -3 -90 1 -96 4 -6 116 -92 248 -191 l241 -181 12
-78 c6 -42 9 -79 6 -82 -7 -7 -92 -21 -132 -21 -44 -1 -60 19 -68 90 -10 86
-28 102 -104 93 l-59 -6 -9 52 c-12 77 -37 93 -122 79 -63 -10 -65 -10 -108
22 -49 35 -64 35 -151 0 l-52 -21 6 83 c11 142 -30 263 -123 367 -61 68 -144
122 -222 144 -54 15 -60 19 -51 36 12 22 73 71 120 95 67 35 114 45 195 42 65
-3 94 -9 145 -34z m-482 -223 c120 -22 220 -99 276 -210 61 -123 58 -244 -10
-369 -19 -35 -32 -71 -29 -79 3 -9 76 -130 162 -270 l156 -254 -18 -79 c-10
-43 -22 -79 -27 -79 -27 0 -145 35 -158 46 -12 12 -12 23 -2 72 22 108 12 134
-59 147 -55 10 -60 16 -49 55 14 51 12 86 -6 101 -9 8 -44 21 -78 29 -60 16
-76 29 -116 100 -6 11 -36 16 -117 21 -95 5 -115 9 -168 36 -191 98 -270 318
-185 510 24 54 86 133 104 133 7 0 27 -20 45 -45 31 -43 31 -45 16 -74 -48
-93 23 -212 127 -213 84 -2 148 55 155 139 4 39 0 55 -19 82 -35 52 -71 74
-121 75 -41 1 -46 4 -76 49 -18 27 -31 51 -29 53 8 8 115 33 144 33 17 1 54
-3 82 -9z m-100 -236 c30 -21 29 -59 -3 -80 -23 -15 -27 -15 -50 0 -32 21 -33
59 -3 80 12 9 25 16 28 16 3 0 16 -7 28 -16z"/>
</g>
</svg>
